<?xml version="1.0" encoding="utf-8"?>
<!-- Generator: Adobe Illustrator 17.0.0, SVG Export Plug-In . SVG Version: 6.00 Build 0)  -->
<!DOCTYPE svg PUBLIC "-//W3C//DTD SVG 1.1//EN" "http://www.w3.org/Graphics/SVG/1.1/DTD/svg11.dtd">
<svg version="1.1" id="_ÎÓÈ_1" xmlns="http://www.w3.org/2000/svg" xmlns:xlink="http://www.w3.org/1999/xlink" x="0px" y="0px"
	 width="500px" height="500px" viewBox="0 0 500 500" enable-background="new 0 0 500 500" xml:space="preserve">
<title>kallinn_icon</title>
<path fill="#00A61C" d="M250.001-0.002C112.146-0.002,0.005,112.143,0.005,249.994c0,64.841,24.8,123.98,65.422,168.433l0.23,0.251
	C111.388,468.634,177.103,500,250.001,500s138.613-31.366,184.345-81.322l0.23-0.251c40.623-44.447,65.422-103.593,65.422-168.433
	C499.995,112.143,387.854-0.002,250.001-0.002z M427.477,378.546c-1.886,2.604-3.833,5.163-5.843,7.677
	c-40.192,50.539-102.192,82.987-171.629,82.987s-131.437-32.447-171.641-82.981c-2.004-2.516-3.952-5.075-5.845-7.677
	c-27.175-37.35-41.79-82.362-41.74-128.552c0-120.872,98.34-219.218,219.218-219.218s219.222,98.34,219.222,219.212
	C469.273,296.184,454.657,341.198,427.477,378.546z"/>
<path fill="#00A61C" d="M250.54,274.632c49.263,0.469,89.578-39.086,90.047-88.349c0.469-49.262-39.086-89.578-88.349-90.047
	c-0.566-0.005-1.132-0.005-1.698,0c-49.264,0-89.2,39.938-89.2,89.202S201.277,274.632,250.54,274.632z"/>
<path fill="#00A61C" d="M296.022,292.896l-1.554-0.202c-29.172-3.645-58.684-3.645-87.856,0l-1.552,0.202
	c-50.306,6.35-94.049,36.669-117.521,80.573c38.184,47.993,97.057,78.811,163,78.811s124.828-30.816,162.998-78.813
	C390.067,329.567,346.328,299.246,296.022,292.896z"/>
</svg>
